<svg width="33" height="23" viewBox="0 0 33 23" fill="none" xmlns="http://www.w3.org/2000/svg">
<g clip-path="url(#clip0_116_448)">
<path d="M24.612 22.9995V19.8389H7.53546V22.9995H1.49222V14.6352C1.52766 13.0987 2.16948 11.6387 3.27759 10.5737L3.27951 10.5718L1.53247 10.2843C1.10639 10.214 0.719058 9.99487 0.439352 9.66586C0.159647 9.33684 0.00569828 8.91929 0.00488297 8.48745C0.00477132 8.22248 0.0624916 7.96068 0.174014 7.72032C0.285537 7.47996 0.448175 7.26684 0.650575 7.09583C0.852975 6.92482 1.09026 6.80005 1.34586 6.73022C1.60147 6.66039 1.86923 6.64719 2.13047 6.69153L2.11992 6.68962L5.11663 7.17837C5.16551 7.18795 5.20767 7.19945 5.24792 7.21287L5.24121 7.21095L7.1713 2.29853H13.3372L13.7972 -0.00146484H19.5472L20.0072 2.29853H25.8166L27.7477 7.21478C27.7853 7.20169 27.8237 7.19112 27.8627 7.18316L27.8703 7.1822L30.8699 6.69345C31.3447 6.61737 31.8303 6.73157 32.2214 7.01127C32.6125 7.29097 32.8776 7.71361 32.9591 8.18749L32.961 8.19803C33.0374 8.67217 32.9238 9.15731 32.6448 9.54823C32.3659 9.93915 31.944 10.2043 31.4708 10.2862L31.4603 10.2882L29.0338 10.6859C30.07 11.741 30.6658 13.1509 30.7003 14.6294V18.1887C30.7003 18.3123 30.6859 18.4321 30.6591 18.5471L30.661 18.5365V22.9976L24.612 22.9995ZM20.8898 15.6999C20.8906 16.0214 21.0187 16.3296 21.246 16.5569C21.4734 16.7843 21.7815 16.9124 22.1031 16.9131H26.9781C27.2999 16.9131 27.6085 16.7853 27.836 16.5578C28.0636 16.3302 28.1914 16.0216 28.1914 15.6999C28.1914 15.3781 28.0636 15.0695 27.836 14.842C27.6085 14.6144 27.2999 14.4866 26.9781 14.4866H22.105C21.7835 14.4876 21.4755 14.6158 21.2482 14.8431C21.0209 15.0704 20.8928 15.3784 20.8918 15.6999H20.8898ZM3.88421 15.6999C3.88472 16.0215 4.01271 16.3298 4.24013 16.5572C4.46755 16.7846 4.77585 16.9126 5.09747 16.9131H9.97251C10.2943 16.9131 10.6029 16.7853 10.8304 16.5578C11.0579 16.3302 11.1858 16.0216 11.1858 15.6999C11.1858 15.3781 11.0579 15.0695 10.8304 14.842C10.6029 14.6144 10.2943 14.4866 9.97251 14.4866H5.09842C4.77713 14.4876 4.46926 14.6156 4.24198 14.8427C4.0147 15.0698 3.88644 15.3776 3.88517 15.6989L3.88421 15.6999ZM6.73334 9.3672H26.153C26.1856 9.3672 26.2172 9.37295 26.2479 9.37295L24.3312 4.4797H8.65863L6.73334 9.3672Z" fill="white"/>
</g>
<defs>
<clipPath id="clip0_116_448">
<rect width="32.5877" height="23" fill="white"/>
</clipPath>
</defs>
</svg>
