<svg width="35" height="35" viewBox="0 0 35 35" fill="none" xmlns="http://www.w3.org/2000/svg">
<g clip-path="url(#clip0_116_456)">
<path d="M25.5212 24.5292L29.0795 26.5855L27.9857 28.4813L23.3337 25.798V20.4167H25.5212V24.5292ZM35.0003 24.7917C35.0003 30.4355 30.4357 35 24.792 35C19.1482 35 14.5837 30.4355 14.5837 24.7917C14.5837 24.2959 14.6274 23.8146 14.7003 23.3334H2.91699V5.83337H29.167V15.575C32.6087 17.223 35.0003 20.723 35.0003 24.7917ZM15.5753 20.4167C15.8378 19.8917 16.1149 19.3959 16.4503 18.9146C16.3191 18.9584 16.1878 18.9584 16.042 18.9584C13.6212 18.9584 11.667 17.0042 11.667 14.5834C11.667 12.1625 13.6212 10.2084 16.042 10.2084C18.4628 10.2084 20.417 12.1625 20.417 14.5834C20.417 14.948 20.3587 15.3125 20.2712 15.648C21.642 14.9771 23.1732 14.5834 24.792 14.5834C25.2878 14.5834 25.7691 14.6271 26.2503 14.7V11.6667C25.4768 11.6667 24.7349 11.3594 24.1879 10.8124C23.641 10.2655 23.3337 9.52359 23.3337 8.75004H8.75033C8.75033 10.3688 7.45241 11.6667 5.83366 11.6667V17.5C6.60721 17.5 7.34907 17.8073 7.89605 18.3543C8.44304 18.9013 8.75033 19.6432 8.75033 20.4167H15.5753ZM32.0837 24.7917C32.0837 20.7667 28.817 17.5 24.792 17.5C20.767 17.5 17.5003 20.7667 17.5003 24.7917C17.5003 28.8167 20.767 32.0834 24.792 32.0834C28.817 32.0834 32.0837 28.8167 32.0837 24.7917Z" fill="white"/>
</g>
<defs>
<clipPath id="clip0_116_456">
<rect width="35" height="35" fill="white"/>
</clipPath>
</defs>
</svg>
