<svg width="35" height="35" viewBox="0 0 35 35" fill="none" xmlns="http://www.w3.org/2000/svg">
<path d="M27.2998 21.525C27.8103 20.2854 28.0873 18.9583 28.0873 17.5C28.0873 16.45 27.9269 15.4437 27.6498 14.5104C26.7019 14.7291 25.7103 14.8458 24.6748 14.8458C22.5544 14.8481 20.4645 14.3405 18.5812 13.3659C16.698 12.3913 15.0767 10.9782 13.854 9.24581C12.546 12.4106 10.0786 14.9564 6.95609 16.3625C6.89775 16.7271 6.89775 17.1208 6.89775 17.5C6.89775 18.8923 7.17199 20.2709 7.70479 21.5572C8.23759 22.8435 9.01854 24.0123 10.003 24.9968C11.9913 26.9851 14.688 28.1021 17.4998 28.1021C19.0311 28.1021 20.504 27.7666 21.8311 27.1687C22.6623 28.7583 23.0415 29.5458 23.0123 29.5458C20.6207 30.3479 18.7686 30.7416 17.4998 30.7416C13.9707 30.7416 10.6019 29.3562 8.12275 26.8625C6.61483 25.3592 5.49392 23.5127 4.85609 21.4812H2.9165V14.8458H4.50609C4.98769 12.5016 6.09493 10.3314 7.71032 8.56563C9.32571 6.79985 11.389 5.50432 13.6812 4.8165C15.9735 4.12867 18.4092 4.07422 20.7298 4.65892C23.0505 5.24362 25.1697 6.44565 26.8623 8.13747C28.7002 9.96805 29.9537 12.3026 30.4644 14.8458H32.0832V21.4812H31.9957L26.804 26.25L19.0748 25.375V22.9396H26.1186L27.2998 21.525ZM13.5186 17.1646C13.9561 17.1646 14.379 17.3396 14.6853 17.6604C14.993 17.9707 15.1657 18.39 15.1657 18.8271C15.1657 19.2641 14.993 19.6834 14.6853 19.9937C14.379 20.3 13.9561 20.475 13.5186 20.475C12.5998 20.475 11.8561 19.7458 11.8561 18.8271C11.8561 17.9083 12.5998 17.1646 13.5186 17.1646ZM21.4665 17.1646C22.3853 17.1646 23.1144 17.9083 23.1144 18.8271C23.1144 19.7458 22.3853 20.475 21.4665 20.475C20.5478 20.475 19.804 19.7458 19.804 18.8271C19.804 18.3861 19.9792 17.9633 20.2909 17.6515C20.6027 17.3397 21.0256 17.1646 21.4665 17.1646Z" fill="white"/>
</svg>
