<svg width="35" height="35" viewBox="0 0 35 35" fill="none" xmlns="http://www.w3.org/2000/svg">
<path d="M17.5072 32.0877C9.45279 32.0877 2.92383 25.5587 2.92383 17.5044C2.92383 9.44998 9.45279 2.92102 17.5072 2.92102C25.5615 2.92102 32.0905 9.44998 32.0905 17.5044C32.0905 25.5587 25.5615 32.0877 17.5072 32.0877ZM17.5072 29.171C20.6014 29.171 23.5688 27.9419 25.7567 25.7539C27.9447 23.566 29.1738 20.5985 29.1738 17.5044C29.1738 14.4102 27.9447 11.4427 25.7567 9.25478C23.5688 7.06685 20.6014 5.83769 17.5072 5.83769C14.413 5.83769 11.4455 7.06685 9.25758 9.25478C7.06966 11.4427 5.8405 14.4102 5.8405 17.5044C5.8405 20.5985 7.06966 23.566 9.25758 25.7539C11.4455 27.9419 14.413 29.171 17.5072 29.171ZM12.403 20.421H20.4238C20.6172 20.421 20.8027 20.3442 20.9394 20.2075C21.0762 20.0707 21.153 19.8852 21.153 19.6919C21.153 19.4985 21.0762 19.313 20.9394 19.1763C20.8027 19.0395 20.6172 18.9627 20.4238 18.9627H14.5905C13.6236 18.9627 12.6962 18.5786 12.0125 17.8948C11.3288 17.2111 10.9447 16.2838 10.9447 15.3169C10.9447 14.3499 11.3288 13.4226 12.0125 12.7389C12.6962 12.0551 13.6236 11.671 14.5905 11.671H16.0488V8.75435H18.9655V11.671H22.6113V14.5877H14.5905C14.3971 14.5877 14.2116 14.6645 14.0749 14.8013C13.9382 14.938 13.8613 15.1235 13.8613 15.3169C13.8613 15.5102 13.9382 15.6957 14.0749 15.8325C14.2116 15.9692 14.3971 16.046 14.5905 16.046H20.4238C21.3908 16.046 22.3181 16.4301 23.0018 17.1139C23.6856 17.7976 24.0697 18.7249 24.0697 19.6919C24.0697 20.6588 23.6856 21.5861 23.0018 22.2698C22.3181 22.9536 21.3908 23.3377 20.4238 23.3377H18.9655V26.2544H16.0488V23.3377H12.403V20.421Z" fill="white"/>
</svg>
